0
SECTION
2
HEADER
9
$ACADVER
1
AC1009
0
ENDSEC
0
SECTION
2
ENTITIES
0
TEXT
8
TITLE
10
20.0
20
270.0
1
TeploVid-4 Lot 4.4 Sborka A3
0
LINE
8
BORDER
10
10.0
20
10.0
11
400.0
31
10.0
0
LINE
8
BORDER
10
10.0
20
10.0
11
10.0
31
280.0
0
LINE
8
BORDER
10
400.0
20
10.0
11
400.0
31
280.0
0
LINE
8
BORDER
10
10.0
20
280.0
11
400.0
31
280.0
0
TEXT
8
COMP
10
30.0
20
240.0
1
FLIR Lepton 3.5
0
RECTANGLE
8
COMP
10
200.0
20
235.0
11
300.0
31
250.0
0
TEXT
8
COMP
10
30.0
20
210.0
1
RPLIDAR A1
0
RECTANGLE
8
COMP
10
200.0
20
205.0
11
300.0
31
220.0
0
TEXT
8
COMP
10
30.0
20
180.0
1
STM32F407 + Jetson Nano
0
RECTANGLE
8
COMP
10
200.0
20
175.0
11
300.0
31
190.0
0
TEXT
8
COMP
10
30.0
20
150.0
1
IMU MPU-6050
0
RECTANGLE
8
COMP
10
200.0
20
145.0
11
300.0
31
160.0
0
TEXT
8
COMP
10
30.0
20
120.0
1
GPS NEO-6M
0
RECTANGLE
8
COMP
10
200.0
20
115.0
11
300.0
31
130.0
0
TEXT
8
TITLE
10
250.0
20
15.0
1
LOT 4.4 | TeploVid-4
0
ENDSEC
0
EOF