0
SECTION
2
HEADER
9
$ACADVER
1
AC1009
0
ENDSEC
0
SECTION
2
ENTITIES
0
TEXT
8
TITLE
10
20.0
20
270.0
1
TeploVid-4 Lot 4.4 Shema A3
0
LINE
8
BORDER
10
10.0
20
10.0
11
400.0
31
10.0
0
LINE
8
BORDER
10
10.0
20
10.0
11
10.0
31
280.0
0
LINE
8
BORDER
10
400.0
20
10.0
11
400.0
31
280.0
0
LINE
8
BORDER
10
10.0
20
280.0
11
400.0
31
280.0
0
TEXT
8
COMP
10
200.0
20
240.0
1
STM32F407
0
TEXT
8
COMP
10
200.0
20
210.0
1
ADC_MCP3208
0
TEXT
8
COMP
10
200.0
20
180.0
1
DAC_MCP4922
0
TEXT
8
COMP
10
200.0
20
150.0
1
LDO_3.3V
0
TEXT
8
COMP
10
200.0
20
120.0
1
LDO_5V
0
TEXT
8
TITLE
10
250.0
20
15.0
1
LOT 4.4 | TeploVid-4
0
ENDSEC
0
EOF