solid body
  facet normal 0 0 1
    outer loop
      vertex -50 -30 12.5
      vertex 50 -30 12.5
      vertex 50 30 12.5
    endloop
  endfacet
  facet normal 0 0 1
    outer loop
      vertex -50 -30 12.5
      vertex 50 30 12.5
      vertex -50 30 12.5
    endloop
  endfacet
  facet normal 0 0 -1
    outer loop
      vertex -50 -30 -12.5
      vertex 50 30 -12.5
      vertex 50 -30 -12.5
    endloop
  endfacet
  facet normal 0 0 -1
    outer loop
      vertex -50 -30 -12.5
      vertex -50 30 -12.5
      vertex 50 30 -12.5
    endloop
  endfacet
  facet normal 0 -1 0
    outer loop
      vertex -50 -30 -12.5
      vertex 50 -30 -12.5
      vertex 50 -30 12.5
    endloop
  endfacet
  facet normal 0 -1 0
    outer loop
      vertex -50 -30 -12.5
      vertex 50 -30 12.5
      vertex -50 -30 12.5
    endloop
  endfacet
  facet normal 0 1 0
    outer loop
      vertex -50 30 -12.5
      vertex 50 30 12.5
      vertex 50 30 -12.5
    endloop
  endfacet
  facet normal 0 1 0
    outer loop
      vertex -50 30 -12.5
      vertex -50 30 12.5
      vertex 50 30 12.5
    endloop
  endfacet
  facet normal -1 0 0
    outer loop
      vertex -50 -30 -12.5
      vertex -50 -30 12.5
      vertex -50 30 12.5
    endloop
  endfacet
  facet normal -1 0 0
    outer loop
      vertex -50 -30 -12.5
      vertex -50 30 12.5
      vertex -50 30 -12.5
    endloop
  endfacet
  facet normal 1 0 0
    outer loop
      vertex 50 -30 -12.5
      vertex 50 30 12.5
      vertex 50 -30 12.5
    endloop
  endfacet
  facet normal 1 0 0
    outer loop
      vertex 50 -30 -12.5
      vertex 50 30 -12.5
      vertex 50 30 12.5
    endloop
  endfacet
endsolid body