0
SECTION
2
HEADER
9
$ACADVER
1
AC1009
0
ENDSEC
0
SECTION
2
ENTITIES
0
TEXT
8
TITLE
10
20.0
20
270.0
1
SpektrBio-2 Lot 2.8 Sborka A3
0
LINE
8
BORDER
10
10.0
20
10.0
11
400.0
31
10.0
0
LINE
8
BORDER
10
10.0
20
10.0
11
10.0
31
280.0
0
LINE
8
BORDER
10
400.0
20
10.0
11
400.0
31
280.0
0
LINE
8
BORDER
10
10.0
20
280.0
11
400.0
31
280.0
0
TEXT
8
COMP
10
30.0
20
240.0
1
Golay cell
0
TEXT
8
COMP
10
30.0
20
210.0
1
Interferometr Mikhelsona
0
TEXT
8
COMP
10
30.0
20
180.0
1
Kyuveta White 100mm
0
TEXT
8
COMP
10
30.0
20
150.0
1
STM32F407
0
TEXT
8
COMP
10
30.0
20
120.0
1
NEMA 17
0
TEXT
8
TITLE
10
250.0
20
15.0
1
LOT 2.8 | SpektrBio-2
0
ENDSEC
0
EOF